{"title":"Street Kings 2 Motor City 2011 DVDRip Xvid AC3 LKRG","uid":6305425,"size":1021947661,"categoryP":"video","categoryS":"movies","magnet":"?xt=urn:btih:0a90f3bf716f905d76222af8e106f21990334ce3&amp;dn=Street+Kings+2+Motor+City+2011+DVDRip+Xvid+AC3+LKRG&amp;tr=udp%3A%2F%2Ftracker.openbittorrent.com%3A80&amp;tr=udp%3A%2F%2Fopen.demonii.com%3A1337&amp;tr=udp%3A%2F%2Ftracker.coppersurfer.tk%3A6969&amp;tr=udp%3A%2F%2Fexodus.desync.com%3A6969","seeders":0,"leechers":1,"uploader":".BONE.","files":72,"time":1302309192,"description":" &lt;a href=&quot;http://www.grinshare.com/img/UQPRMU.png&quot; rel=&quot;nofollow&quot; target=&quot;_NEW&quot;&gt;http://www.grinshare.com/img/UQPRMU.png&lt;/a&gt;\n &lt;a href=&quot;\nhttp://www.grinshare.com/img/QWSPN0.png&quot; rel=&quot;nofollow&quot; target=&quot;_NEW&quot;&gt;\nhttp://www.grinshare.com/img/QWSPN0.png&lt;/a&gt;\n &lt;a href=&quot;\nhttp://www.grinshare.com/img/PWVAHP.png&quot; rel=&quot;nofollow&quot; target=&quot;_NEW&quot;&gt;\nhttp://www.grinshare.com/img/PWVAHP.png&lt;/a&gt;\n &lt;a href=&quot;\nhttp://www.grinshare.com/img/MG7VV2.png&quot; rel=&quot;nofollow&quot; target=&quot;_NEW&quot;&gt;\nhttp://www.grinshare.com/img/MG7VV2.png&lt;/a&gt;\n &lt;a href=&quot;\nhttp://www.grinshare.com/img/980T11.png&quot; rel=&quot;nofollow&quot; target=&quot;_NEW&quot;&gt;\nhttp://www.grinshare.com/img/980T11.png&lt;/a&gt;\n &lt;a href=&quot;\nhttp://www.grinshare.com/img/3D3GPT.png&quot; rel=&quot;nofollow&quot; target=&quot;_NEW&quot;&gt;\nhttp://www.grinshare.com/img/3D3GPT.png&lt;/a&gt;\n\n\nMotor City moves the action to Michigan and explores the world of dirty cops on the violent streets of Detroit. Marty Kingston (Liotta) is an undercover narcotics detective who is shot and barely survives a drug bust gone wrong to save the life of his partner. When his partner is killed by a masked gunman four years later, Marty must team up with the hotheaded homicide detective Dan Sullivan (Hatosy) to investigate a string of brutal cop murders and hunt down the cop killer. The investigation that ensues is shrouded in deception and loaded with plot twists that question the line between the rules of law and justice./b]\n &lt;a href=&quot;\nhttp://www.imdb.com/title/tt1707687/&quot; rel=&quot;nofollow&quot; target=&quot;_NEW&quot;&gt;\nhttp://www.imdb.com/title/tt1707687/&lt;/a&gt;\n\nFormat;AVI\n\nFile Size:1.1gb\n\nVideo\nID : 0\nFormat : MPEG-4 Visual\nFormat profile : Advanced Simple@L5\nFormat settings, BVOP : Yes\nFormat settings, QPel : No\nFormat settings, GMC : No warppoints\nFormat settings, Matrix : Custom\nCodec ID : XVID\nCodec ID/Hint : XviD\nDuration : 1h 25mn\nBit rate : 1 141 Kbps\nWidth : 680 pixels\nHeight : 384 pixels\nDisplay aspect ratio : 16:9\nFrame rate : 23.976 fps\nColor space : YUV\nChroma subsampling : 4:2:0\nBit depth : 8 bits\nScan type : Progressive\nBits/(Pixel*Frame) : 0.182\nStream size : 702 MiB (71%)\nWriting library : XviD 1.2.1 (UTC 2008-12-04)\n\nAudio\nID : 1\nFormat : AC-3\nFormat/Info : Audio Coding 3\nMode extension : CM (complete main)\nCodec ID : 2000\nDuration : 1h 25mn\nBit rate mode : Constant\nBit rate : 448 Kbps\nChannel(s) : 6 channels\nChannel positions : Front: L C R, Side: L R, LFE\nSampling rate : 48.0 KHz\nBit depth : 16 bits\nStream size : 275 MiB (28%)\nAlignment : Aligned on interleaves\nInterleave, duration : 42 ms (1.00 video frame)\nInterleave, preload duration : 512 ms\n\n\n\n\nDuration:1:25\n\nRelease Date:2011\n\nLanguage:English","torrent":{"xt":"urn:btih:0a90f3bf716f905d76222af8e106f21990334ce3","amp;dn":"Street+Kings+2+Motor+City+2011+DVDRip+Xvid+AC3+LKRG","amp;tr":["udp%3A%2F%2Ftracker.openbittorrent.com%3A80","udp%3A%2F%2Fopen.demonii.com%3A1337","udp%3A%2F%2Ftracker.coppersurfer.tk%3A6969","udp%3A%2F%2Fexodus.desync.com%3A6969"],"infoHash":"0a90f3bf716f905d76222af8e106f21990334ce3","infoHashBuffer":{"type":"Buffer","data":[10,144,243,191,113,111,144,93,118,34,42,248,225,6,242,25,144,51,76,227]},"announce":[],"urlList":[]}}